<svg width="448" height="616" viewBox="0 0 448 616" fill="none" xmlns="http://www.w3.org/2000/svg">
<path d="M57.4004 486.78H15.0014C3.91056 486.78 0 482.863 0 471.114V463.281C0 452.184 3.91056 448.267 15.6482 448.267L58.0413 448.92C69.1321 449.573 73.0427 453.489 73.0427 465.239V471.114C73.0427 482.863 69.1321 486.78 57.3945 486.78H57.4004ZM61.9638 440.434L9.77938 439.129C2.60506 439.129 0 436.518 0 428.685V379.728C0 371.895 2.60507 369.284 11.0849 369.937L62.6106 372.548C70.4436 373.201 73.0486 375.812 73.0486 383.645V429.99C73.0486 437.823 70.4436 440.434 61.9638 440.434ZM57.4004 165.625L14.3486 158.445C3.91056 157.139 0 152.57 0 141.473V134.293C0 122.543 3.91056 119.279 15.6482 121.238L58.0413 129.071C69.1321 131.029 73.0427 135.598 73.0427 147.348V153.223C73.0427 164.319 69.1321 167.583 57.3945 165.625H57.4004ZM61.9638 363.409L9.77938 360.798C2.60506 360.145 0 357.534 0 349.701V176.722C0 168.236 2.60507 165.625 11.0849 166.93L62.6106 176.069C70.4436 177.374 73.0486 180.638 73.0486 188.471V353.618C73.0486 361.451 70.4436 364.062 61.9638 363.409ZM151.966 503.751H97.8294C86.0918 503.751 82.1812 499.835 82.1812 488.085V479.599C82.1812 467.85 86.0918 463.933 97.8294 463.933L151.966 465.239C163.057 465.239 166.967 469.155 166.967 480.252V488.085C166.967 499.835 163.057 503.751 151.966 503.751ZM155.889 456.1L92.6193 454.795C84.7863 454.795 82.1812 452.184 82.1812 443.698V320.327C82.1812 311.842 84.7863 309.231 93.2661 309.883L156.535 314.453C164.368 315.105 166.973 318.369 166.973 326.202V445.003C166.973 453.489 164.368 456.1 155.889 456.1ZM151.319 134.293L97.1826 125.807C86.0918 123.849 82.1812 119.279 82.1812 107.53V93.1691C82.1812 82.0723 86.0918 78.8086 97.8294 80.7668L151.966 89.9054C163.057 91.8636 166.967 96.4329 166.967 108.182V120.585C166.967 132.334 163.057 135.598 151.319 134.293ZM155.889 305.314L92.6193 300.745C84.7863 300.092 82.1812 296.828 82.1812 288.995V143.431C82.1812 134.945 84.7863 132.334 93.2661 133.64L156.535 144.084C164.368 145.389 166.973 148 166.973 155.834V294.87C166.973 303.356 164.368 305.967 155.889 305.314ZM257.64 517.459H192.413C180.017 517.459 176.106 513.543 176.106 501.793V490.696C176.106 478.947 180.675 475.03 193.06 475.03L258.287 476.336C269.378 476.336 273.289 480.252 273.289 492.655V501.793C273.289 513.543 269.378 517.459 257.64 517.459ZM261.551 466.544L187.191 465.892C178.711 465.892 176.106 462.628 176.106 454.142V241.344C176.106 232.858 179.37 230.247 188.502 231.553L262.856 238.733C270.689 239.386 273.294 242.65 273.294 250.483V454.795C273.294 463.281 270.031 466.544 261.557 466.544H261.551ZM256.982 101.655L191.754 91.8636C180.017 90.5581 176.106 85.9889 176.106 73.5865V52.6984C176.106 40.2961 180.675 37.0323 193.06 38.9906L258.287 50.7401C269.378 52.6984 273.289 57.2677 273.289 69.67V87.9471C273.289 99.6967 269.378 102.96 256.982 101.655ZM261.551 229.595L187.191 221.762C178.711 221.109 176.106 217.845 176.106 210.012V110.794C176.106 101.655 179.37 99.0439 188.502 100.349L262.856 112.099C270.689 113.405 273.294 116.668 273.294 124.501V219.151C273.294 227.636 270.031 230.247 261.557 229.595H261.551ZM375.693 539H298.734C286.338 539 282.427 535.083 282.427 522.681V501.793C282.427 489.391 286.996 485.474 299.381 485.474L376.352 486.78C388.089 486.78 392 490.696 392 503.099V522.681C392 535.083 388.089 539 375.693 539ZM379.604 477.641L294.165 476.336C285.679 476.336 282.427 473.072 282.427 464.586V181.944C282.427 172.805 285.679 170.194 294.811 171.5L380.915 181.291C389.395 181.944 392 185.207 392 193.693V465.892C392 474.377 388.736 477.641 379.604 477.641ZM375.046 65.7535L298.075 54.0039C286.338 52.6984 282.427 48.1291 282.427 36.3796V14.8387C282.427 2.43636 286.996 -1.48016 300.039 0.478103L376.352 14.1859C388.089 16.1442 392 20.7135 392 33.1158V51.3929C392 63.7952 387.431 67.7117 375.046 65.7535ZM379.604 171.5L293.512 161.708C285.032 161.056 282.427 157.792 282.427 149.306V72.9338C282.427 63.7952 285.679 61.1842 294.811 62.4897L380.915 75.5448C389.395 76.8503 392 80.1141 392 88.5999V161.056C392 170.194 388.736 172.805 379.604 171.5Z" fill="#183A23"/>
</svg>
