<svg width="814" height="441" viewBox="0 0 814 441" fill="none" xmlns="http://www.w3.org/2000/svg">
<path d="M573.349 440.009C587.135 440.009 591.071 435.107 589.103 422.366L574.342 288.11C573.357 275.369 568.437 271.45 556.62 271.45H430.631C417.838 271.45 413.893 276.351 413.893 289.092V422.366C413.893 435.107 417.829 440.009 430.631 440.009H573.358H573.349ZM603.864 271.458C590.087 271.458 586.151 276.36 588.119 289.101L602.88 423.357C603.864 436.098 608.785 440.017 620.594 440.017H797.771C811.557 440.017 815.494 435.115 813.525 421.401L789.899 288.127C787.931 275.386 783.01 271.467 770.217 271.467H603.864V271.458ZM592.047 147.005C578.269 147.005 574.333 151.907 575.309 165.621L583.181 241.075C584.165 253.816 589.086 257.736 602.872 257.736H738.709C753.471 257.736 758.391 252.834 756.423 239.12L743.63 163.666C741.662 150.925 736.741 147.005 723.939 147.005H592.038H592.047ZM551.691 257.736C566.452 257.736 571.372 252.834 569.404 239.12L560.547 163.666C558.579 150.925 553.659 147.005 540.866 147.005H432.591C418.805 147.005 413.885 151.907 413.885 164.639V240.093C413.885 252.834 418.805 257.736 432.591 257.736H551.691ZM532.009 133.283C550.715 133.283 556.62 129.363 555.635 117.604L551.699 78.4086C550.715 65.6678 543.826 60.7662 526.104 60.7662H433.575C418.814 60.7662 413.893 65.6678 413.893 78.4086V117.604C413.893 129.363 418.814 133.283 433.575 133.283H532.009ZM586.142 60.7662C569.404 60.7662 564.484 65.6678 565.468 78.4086L569.404 117.604C570.388 129.363 576.293 133.283 592.047 133.283H692.449C710.171 133.283 715.091 128.381 712.139 114.667L704.266 79.3906C701.314 65.6678 694.425 60.7748 678.672 60.7748H586.142V60.7662ZM524.136 47.0434C543.826 47.0434 547.763 42.1418 545.795 24.508C543.826 4.91014 538.906 0.00853938 520.2 0.00853938H433.583C417.838 0.00853938 413.902 4.91014 413.902 22.544C413.902 42.1418 417.838 47.0434 433.583 47.0434H524.145H524.136ZM580.238 0.00853938C561.531 0.00853938 557.595 3.92811 558.579 20.5884C560.547 42.1504 565.468 47.0434 584.174 47.0434H650.125C668.831 47.0434 672.767 43.1239 670.799 25.4815C668.831 4.9016 662.926 0 642.252 0H580.238V0.00853938ZM240.643 440.009H383.369C396.163 440.009 400.107 435.107 400.107 422.366V289.092C400.107 276.351 396.171 271.45 383.369 271.45H257.381C245.572 271.45 240.643 275.369 239.659 288.11L224.898 422.366C223.914 435.107 226.866 440.009 240.652 440.009H240.643ZM210.136 271.458H43.7834C30.9903 271.458 26.0614 275.378 24.0932 288.119L0.475187 421.384C-1.49298 435.107 2.44335 440 16.2205 440H193.398C205.207 440 210.136 436.08 211.112 423.34L225.873 289.084C226.857 276.343 223.905 271.441 210.128 271.441L210.136 271.458ZM221.945 147.005H90.0439C77.2508 147.005 72.3219 150.925 70.3537 163.666L57.5606 239.12C55.5924 252.842 60.5129 257.736 75.2827 257.736H211.12C224.898 257.736 229.827 253.816 230.811 241.075L238.683 165.621C239.667 151.898 235.731 147.005 221.945 147.005ZM262.301 257.736H381.401C395.187 257.736 400.107 252.834 400.107 240.093V164.639C400.107 151.898 395.187 147.005 381.401 147.005H273.126C260.333 147.005 255.413 150.925 253.445 163.666L244.588 239.12C242.62 252.842 247.54 257.736 262.301 257.736ZM281.992 133.283H380.426C395.187 133.283 400.107 129.363 400.107 117.604V78.4086C400.107 65.6678 395.187 60.7662 380.426 60.7662H287.896C270.174 60.7662 263.285 65.6678 262.301 78.4086L258.365 117.604C257.381 129.363 263.285 133.283 281.992 133.283ZM227.85 60.7662H135.32C119.575 60.7662 112.678 65.6678 109.726 79.3821L101.853 114.658C98.9007 128.381 103.821 133.274 121.543 133.274H221.945C237.691 133.274 243.604 129.354 244.588 117.596L248.524 78.4C249.508 65.6593 244.588 60.7577 227.85 60.7577V60.7662ZM290.848 47.0434H381.41C396.171 47.0434 400.116 42.1418 400.116 22.544C400.116 4.9016 396.18 0.00853938 381.41 0.00853938H294.793C276.096 0.00853938 270.183 4.91014 268.214 24.508C266.246 42.1504 270.183 47.0434 290.857 47.0434H290.848ZM234.739 0.00853938H172.724C151.066 0.00853938 145.161 4.91014 143.193 25.49C141.225 43.1324 145.161 47.052 164.851 47.052H230.802C248.516 47.052 253.445 42.1504 255.413 20.597C256.397 3.93665 252.461 0.0170788 234.739 0.0170788V0.00853938Z" fill="#CA4E23"/>
</svg>
